name C:/MyDriveSym/Projects/mobilecap/Data\Session20210813_0002\mocap\ForceDataProcessed\walking2_forces.mot
datacolumns 19
datarows 19
range 0.37700000 0.38600000
endheader 
time	R_ground_force_vx	R_ground_force_vy	R_ground_force_vz	R_ground_force_px	R_ground_force_py	R_ground_force_pz	R_ground_torque_x	R_ground_torque_y	R_ground_torque_z	L_ground_force_vx	L_ground_force_vy	L_ground_force_vz	L_ground_force_px	L_ground_force_py	L_ground_force_pz	L_ground_torque_x	L_ground_torque_y	L_ground_torque_z	
          0.37700000	          4.59851100	        716.25095800	         -8.15642400	          0.26067900	          0.00600000	         -0.12932800	          0.00000000	         -2.72423100	          0.00000000	          0.00000000	          0.00000000	          0.00000000	          0.75757500	          0.00000000	         -0.12011700	          0.00000000	          0.00000000	          0.00000000	
          0.37750000	          4.83002700	        716.69492500	         -8.21029200	          0.26073900	          0.00600000	         -0.12932700	          0.00000000	         -2.72711500	          0.00000000	          0.00000000	          0.00000000	          0.00000000	          0.75757500	          0.00000000	         -0.12011700	          0.00000000	          0.00000000	          0.00000000	
          0.37800000	          5.06179800	        717.13946700	         -8.26472200	          0.26079900	          0.00600000	         -0.12932500	          0.00000000	         -2.72997800	          0.00000000	          0.00000000	          0.00000000	          0.00000000	          0.75757500	          0.00000000	         -0.12011700	          0.00000000	          0.00000000	          0.00000000	
          0.37850000	          5.29382800	        717.58458100	         -8.31970600	          0.26085900	          0.00600000	         -0.12932300	          0.00000000	         -2.73282200	          0.00000000	          0.00000000	          0.00000000	          0.00000000	          0.75757500	          0.00000000	         -0.12011700	          0.00000000	          0.00000000	          0.00000000	
          0.37900000	          5.52612100	        718.03026000	         -8.37523900	          0.26092100	          0.00600000	         -0.12932200	          0.00000000	         -2.73564500	          0.00000000	          0.00000000	          0.00000000	          0.00000000	          0.75757500	          0.00000000	         -0.12011700	          0.00000000	          0.00000000	          0.00000000	
          0.37950000	          5.75868100	        718.47650000	         -8.43131500	          0.26098300	          0.00600000	         -0.12932000	          0.00000000	         -2.73844800	          0.00000000	          0.00000000	          0.00000000	          0.00000000	          0.75757500	          0.00000000	         -0.12011700	          0.00000000	          0.00000000	          0.00000000	
          0.38000000	          5.99151200	        718.92329400	         -8.48792800	          0.26104500	          0.00600000	         -0.12931800	          0.00000000	         -2.74123100	          0.00000000	          0.00000000	          0.00000000	          0.00000000	          0.75757500	          0.00000000	         -0.12011700	          0.00000000	          0.00000000	          0.00000000	
          0.38050000	          6.22461800	        719.37063800	         -8.54507100	          0.26110800	          0.00600000	         -0.12931600	          0.00000000	         -2.74399500	          0.00000000	          0.00000000	          0.00000000	          0.00000000	          0.75757500	          0.00000000	         -0.12011700	          0.00000000	          0.00000000	          0.00000000	
          0.38100000	          6.45800200	        719.81852600	         -8.60273700	          0.26117100	          0.00600000	         -0.12931400	          0.00000000	         -2.74673800	          0.00000000	          0.00000000	          0.00000000	          0.00000000	          0.75757500	          0.00000000	         -0.12011700	          0.00000000	          0.00000000	          0.00000000	
          0.38150000	          6.69167000	        720.26695200	         -8.66092100	          0.26123600	          0.00600000	         -0.12931200	          0.00000000	         -2.74946300	          0.00000000	          0.00000000	          0.00000000	          0.00000000	          0.75757500	          0.00000000	         -0.12011700	          0.00000000	          0.00000000	          0.00000000	
          0.38200000	          6.92562500	        720.71591000	         -8.71961500	          0.26130000	          0.00600000	         -0.12931000	          0.00000000	         -2.75216800	          0.00000000	          0.00000000	          0.00000000	          0.00000000	          0.75757500	          0.00000000	         -0.12011700	          0.00000000	          0.00000000	          0.00000000	
          0.38250000	          7.15987100	        721.16539500	         -8.77881300	          0.26136500	          0.00600000	         -0.12930800	          0.00000000	         -2.75485400	          0.00000000	          0.00000000	          0.00000000	          0.00000000	          0.75757500	          0.00000000	         -0.12011700	          0.00000000	          0.00000000	          0.00000000	
          0.38300000	          7.39441400	        721.61540200	         -8.83850700	          0.26143100	          0.00600000	         -0.12930500	          0.00000000	         -2.75752100	          0.00000000	          0.00000000	          0.00000000	          0.00000000	          0.75757500	          0.00000000	         -0.12011700	          0.00000000	          0.00000000	          0.00000000	
          0.38350000	          7.62925600	        722.06592300	         -8.89869200	          0.26149700	          0.00600000	         -0.12930300	          0.00000000	         -2.76017000	          0.00000000	          0.00000000	          0.00000000	          0.00000000	          0.75757500	          0.00000000	         -0.12011700	          0.00000000	          0.00000000	          0.00000000	
          0.38400000	          7.86440300	        722.51695400	         -8.95935900	          0.26156400	          0.00600000	         -0.12930100	          0.00000000	         -2.76279900	          0.00000000	          0.00000000	          0.00000000	          0.00000000	          0.75757500	          0.00000000	         -0.12011700	          0.00000000	          0.00000000	          0.00000000	
          0.38450000	          8.09985900	        722.96848700	         -9.02050300	          0.26163200	          0.00600000	         -0.12929800	          0.00000000	         -2.76541000	          0.00000000	          0.00000000	          0.00000000	          0.00000000	          0.75757500	          0.00000000	         -0.12011700	          0.00000000	          0.00000000	          0.00000000	
          0.38500000	          8.33562900	        723.42051800	         -9.08211400	          0.26170000	          0.00600000	         -0.12929600	          0.00000000	         -2.76800300	          0.00000000	          0.00000000	          0.00000000	          0.00000000	          0.75757500	          0.00000000	         -0.12011700	          0.00000000	          0.00000000	          0.00000000	
          0.38550000	          8.57171600	        723.87304000	         -9.14418800	          0.26176800	          0.00600000	         -0.12929300	          0.00000000	         -2.77057800	          0.00000000	          0.00000000	          0.00000000	          0.00000000	          0.75757500	          0.00000000	         -0.12011700	          0.00000000	          0.00000000	          0.00000000	
          0.38600000	          8.80812500	        724.32604600	         -9.20671500	          0.26183700	          0.00600000	         -0.12929000	          0.00000000	         -2.77313500	          0.00000000	          0.00000000	          0.00000000	          0.00000000	          0.75757500	          0.00000000	         -0.12011700	          0.00000000	          0.00000000	          0.00000000	
